<mxfile host="app.diagrams.net" modified="2023-08-06T15:36:13.175Z" agent="Mozilla/5.0 (X11; Linux x86_64) AppleWebKit/537.36 (KHTML, like Gecko) Chrome/114.0.0.0 Safari/537.36" version="21.6.6" etag="mLRER7OHiWCIuTPmNtJ0" type="github">
  <diagram name="第 1 页" id="QE-rHyJdenW7DbmXGxB5">
    <mxGraphModel>
      <root>
        <mxCell id="0" />
        <mxCell id="1" parent="0" />
      </root>
    </mxGraphModel>
  </diagram>
</mxfile>
